<!-- Exported by Character Map UWP -->
<svg height="100%" viewBox="0 -256 256 256" width="100%" xmlns="http://www.w3.org/2000/svg" xmlns:xlink="http://www.w3.org/1999/xlink">
  <path d="M128,-8C117,-8 106.396,-9.4375 96.1875,-12.3125C85.9792,-15.1875 76.4167,-19.2292 67.5,-24.4375C58.5833,-29.6458 50.4792,-35.8958 43.1875,-43.1875C35.8958,-50.4792 29.6458,-58.5833 24.4375,-67.5C19.2292,-76.4167 15.1875,-85.9792 12.3125,-96.1875C9.4375,-106.396 8,-117 8,-128C8,-139 9.4375,-149.604 12.3125,-159.813C15.1875,-170.021 19.2292,-179.583 24.4375,-188.5C29.6458,-197.417 35.8958,-205.521 43.1875,-212.813C50.4792,-220.104 58.5833,-226.354 67.5,-231.563C76.4167,-236.771 85.9792,-240.813 96.1875,-243.688C106.396,-246.563 117,-248 128,-248C139,-248 149.604,-246.563 159.813,-243.688C170.021,-240.813 179.583,-236.771 188.5,-231.563C197.417,-226.354 205.521,-220.104 212.813,-212.813C220.104,-205.521 226.354,-197.417 231.563,-188.5C236.771,-179.583 240.813,-170.021 243.688,-159.813C246.563,-149.604 248,-139 248,-128C248,-117 246.563,-106.396 243.688,-96.1875C240.813,-85.9792 236.771,-76.4167 231.563,-67.5C226.354,-58.5833 220.104,-50.4792 212.813,-43.1875C205.521,-35.8958 197.417,-29.6458 188.5,-24.4375C179.583,-19.2292 170.021,-15.1875 159.813,-12.3125C149.604,-9.4375 139,-8 128,-8Z" fill="#FAFAFA" fill-opacity="1">
  </path>
  <path d="M128,-256C139.75,-256 151.083,-254.479 162,-251.438C172.917,-248.396 183.104,-244.083 192.563,-238.5C202.021,-232.917 210.646,-226.229 218.438,-218.438C226.229,-210.646 232.917,-202.021 238.5,-192.563C244.083,-183.104 248.396,-172.917 251.438,-162C254.479,-151.083 256,-139.75 256,-128C256,-116.25 254.479,-104.917 251.438,-94C248.396,-83.0833 244.083,-72.8958 238.5,-63.4375C232.917,-53.9792 226.229,-45.3542 218.438,-37.5625C210.646,-29.7708 202.021,-23.0833 192.563,-17.5C183.104,-11.9167 172.917,-7.60417 162,-4.5625C151.083,-1.52083 139.75,0 128,0C116.25,0 104.917,-1.52083 94,-4.5625C83.0833,-7.60417 72.8958,-11.9167 63.4375,-17.5C53.9792,-23.0833 45.3542,-29.7708 37.5625,-37.5625C29.7708,-45.3542 23.0833,-53.9792 17.5,-63.4375C11.9167,-72.8958 7.60417,-83.0833 4.5625,-94C1.52083,-104.917 0,-116.25 0,-128C0,-139.75 1.52083,-151.083 4.5625,-162C7.60417,-172.917 11.9167,-183.104 17.5,-192.563C23.0833,-202.021 29.7708,-210.646 37.5625,-218.438C45.3542,-226.229 53.9792,-232.917 63.4375,-238.5C72.8958,-244.083 83.0833,-248.396 94,-251.438C104.917,-254.479 116.25,-256 128,-256ZM128,-16C138.25,-16 148.146,-17.3333 157.688,-20C167.229,-22.6667 176.146,-26.4375 184.438,-31.3125C192.729,-36.1875 200.292,-42.0417 207.125,-48.875C213.958,-55.7083 219.813,-63.2708 224.688,-71.5625C229.563,-79.8542 233.333,-88.7708 236,-98.3125C238.667,-107.854 240,-117.75 240,-128C240,-138.25 238.667,-148.146 236,-157.688C233.333,-167.229 229.563,-176.146 224.688,-184.438C219.813,-192.729 213.958,-200.292 207.125,-207.125C200.292,-213.958 192.729,-219.813 184.438,-224.688C176.146,-229.563 167.229,-233.333 157.688,-236C148.146,-238.667 138.25,-240 128,-240C117.667,-240 107.75,-238.667 98.25,-236C88.75,-233.333 79.8542,-229.563 71.5625,-224.688C63.2708,-219.813 55.7083,-213.958 48.875,-207.125C42.0417,-200.292 36.1875,-192.729 31.3125,-184.438C26.4375,-176.146 22.6667,-167.229 20,-157.688C17.3333,-148.146 16,-138.25 16,-128C16,-117.667 17.3333,-107.75 20,-98.25C22.6667,-88.75 26.4375,-79.8542 31.3125,-71.5625C36.1875,-63.2708 42.0417,-55.7083 48.875,-48.875C55.7083,-42.0417 63.2708,-36.1875 71.5625,-31.3125C79.8542,-26.4375 88.7708,-22.6667 98.3125,-20C107.854,-17.3333 117.75,-16 128,-16ZM131.625,-64L131.625,-43.625L108.625,-43.625L108.625,-64ZM163.25,-195.125C167.583,-190.458 170.771,-185.521 172.813,-180.313C174.854,-175.104 175.875,-169 175.875,-162C175.875,-155.667 173.854,-149.042 169.813,-142.125C165.771,-135.208 159.583,-128.208 151.25,-121.125C145.583,-116.292 141.229,-112.438 138.188,-109.563C135.146,-106.688 132.917,-104.167 131.5,-102C130.083,-99.8333 129.25,-97.6875 129,-95.5625C128.75,-93.4375 128.625,-90.75 128.625,-87.5L128.625,-80L112,-80C112,-80.8333 111.979,-81.8125 111.938,-82.9375C111.896,-84.0625 111.875,-85.3333 111.875,-86.75C111.875,-90.25 111.979,-93.5 112.188,-96.5C112.396,-99.5 113.333,-102.688 115,-106.063C116.667,-109.438 119.375,-113.25 123.125,-117.5C126.875,-121.75 132.292,-126.875 139.375,-132.875C143.792,-136.625 147.292,-140.021 149.875,-143.063C152.458,-146.104 154.438,-148.708 155.813,-150.875C157.188,-153.042 158.083,-154.833 158.5,-156.25C158.917,-157.667 159.167,-158.625 159.25,-159.125C159.417,-159.792 159.5,-160.458 159.5,-161.125C159.5,-161.792 159.5,-162.458 159.5,-163.125C159.5,-167.625 158.75,-171.667 157.25,-175.25C155.75,-178.833 153.625,-181.854 150.875,-184.313C148.125,-186.771 144.813,-188.667 140.938,-190C137.063,-191.333 132.792,-192 128.125,-192C123.042,-192 118.729,-191.229 115.188,-189.688C111.646,-188.146 108.687,-186.208 106.313,-183.875C103.937,-181.542 102.062,-179 100.688,-176.25C99.3125,-173.5 98.2708,-170.917 97.5625,-168.5C96.8542,-166.083 96.4167,-164.021 96.25,-162.313C96.0833,-160.604 96,-159.667 96,-159.5L96,-153.625L80.125,-153.625L80.125,-160.625C80.125,-163.375 80.4375,-166.479 81.0625,-169.938C81.6875,-173.396 82.7292,-176.875 84.1875,-180.375C85.6458,-183.875 87.5833,-187.292 90,-190.625C92.4167,-193.958 95.3958,-196.896 98.9375,-199.438C102.479,-201.979 106.667,-204.042 111.5,-205.625C116.333,-207.208 121.875,-208 128.125,-208C132.708,-208 136.833,-207.625 140.5,-206.875C144.167,-206.125 147.438,-205.146 150.313,-203.938C153.188,-202.729 155.688,-201.354 157.813,-199.813C159.938,-198.271 161.75,-196.708 163.25,-195.125Z" fill="#1E8BCD" fill-opacity="1">
  </path>
</svg>