<svg width="100%" height="100%" viewBox="0 0 202 224" version="1.1" xmlns="http://www.w3.org/2000/svg" xmlns:xlink="http://www.w3.org/1999/xlink">
    <path d="M4,220L4,4L100,4L164,68L164,220L4,220Z" style="fill:#fafafa;fill-rule:nonzero;"/>
    <path d="M168,64L168,224L0,224L0,0L104,0L168,64ZM104,12L104,64L156,64L104,12ZM160,72L96,72L96,8L8,8L8,216L160,216L160,72Z" style="fill:#3a3a38;fill-rule:nonzero;"/>
    <path d="M61.667,215.423L127.691,83.299L193.715,215.423L61.667,215.423Z" style="fill:#f8db8f;fill-rule:nonzero;"/>
    <path d="M201.737,220.36L53.646,220.36L127.691,72.269L201.737,220.36ZM69.611,210.488L185.77,210.488L127.691,94.327L69.611,210.488Z" style="fill:#de6c00;fill-rule:nonzero;"/>
    <path d="M121.521,180.869L121.521,121.633L133.862,121.633L133.862,180.869L121.521,180.869ZM133.862,190.742L133.862,200.614L121.521,200.614L121.521,190.742L133.862,190.742Z" style="fill:#3a3a38;fill-rule:nonzero;"/>
</svg>
