<!-- Exported by Character Map UWP -->
<svg height="100%" viewBox="40 -240 216 238" width="100%" xmlns="http://www.w3.org/2000/svg" xmlns:xlink="http://www.w3.org/1999/xlink">
  <path d="M109.375,-20L44,-20L44,-236L140,-236L204,-172L204,-90.625L144,-30.625L93.625,-81L71,-58.375Z" fill="#FAFAFA" fill-opacity="1">
  </path>
  <path d="M113.375,-16L40,-16L40,-240L144,-240L208,-176L208,-94.625L200,-86.625L200,-168L136,-168L136,-232L48,-232L48,-24L105.375,-24ZM144,-176L196,-176L144,-228Z" fill="#3A3A38" fill-opacity="1">
  </path>
  <path d="M144,-2.375L88,-58.375L93.625,-64L144,-13.625L250.375,-120L256,-114.375Z" fill="#379E4E" fill-opacity="1">
  </path>
</svg>